<svg width="160" height="153" viewBox="0 0 160 153" fill="none" xmlns="http://www.w3.org/2000/svg">
<path d="M107.681 89.0165L92.9204 105.289L134.525 143.027L149.285 126.754L107.681 89.0165Z" fill="url(#paint0_linear_547_715)"/>
<path fill-rule="evenodd" clip-rule="evenodd" d="M123.279 62.0833C123.279 96.1259 95.6823 123.723 61.6396 123.723C27.597 123.723 0 96.1259 0 62.0833C0 28.0406 27.597 0.443604 61.6396 0.443604C95.6823 0.443604 123.279 28.0406 123.279 62.0833ZM113.824 62.0833C113.824 90.9042 90.4603 114.268 61.6394 114.268C32.8185 114.268 9.45459 90.9042 9.45459 62.0833C9.45459 33.2624 32.8185 9.89844 61.6394 9.89844C90.4603 9.89844 113.824 33.2624 113.824 62.0833Z" fill="url(#paint1_linear_547_715)"/>
<g filter="url(#filter0_b_547_715)">
<path d="M61.6399 114.268C90.4608 114.268 113.825 90.9042 113.825 62.0833C113.825 33.2624 90.4608 9.89844 61.6399 9.89844C32.819 9.89844 9.45508 33.2624 9.45508 62.0833C9.45508 90.9042 32.819 114.268 61.6399 114.268Z" fill="url(#paint2_linear_547_715)" fill-opacity="0.2"/>
</g>
<path d="M74.1794 62.0832L89.1037 47.1256C90.5019 45.6459 91.2679 43.6793 91.2391 41.6437C91.2102 39.6081 90.3888 37.664 88.9493 36.2245C87.5097 34.7849 85.5656 33.9635 83.53 33.9346C81.4944 33.9058 79.5278 34.6719 78.0481 36.07L63.0905 51.0276L48.1662 36.07C47.4481 35.31 46.5848 34.7017 45.6274 34.2811C44.6701 33.8605 43.6381 33.6361 42.5925 33.6213C41.547 33.6065 40.5091 33.8015 39.5402 34.1948C38.5713 34.5881 37.6911 35.1718 36.9517 35.9112C36.2123 36.6506 35.6287 37.5307 35.2354 38.4996C34.8421 39.4685 34.6471 40.5064 34.6619 41.552C34.6767 42.5975 34.9011 43.6295 35.3217 44.5869C35.7423 45.5442 36.3506 46.4075 37.1106 47.1256L52.0599 62.0832L37.1106 77.0408C36.3506 77.759 35.7423 78.6223 35.3217 79.5796C34.9011 80.537 34.6767 81.569 34.6619 82.6145C34.6471 83.6601 34.8421 84.698 35.2354 85.6669C35.6287 86.6358 36.2123 87.5159 36.9517 88.2553C37.6911 88.9947 38.5713 89.5783 39.5402 89.9716C40.5091 90.365 41.547 90.56 42.5925 90.5452C43.6381 90.5303 44.6701 90.306 45.6274 89.8854C46.5848 89.4648 47.4481 88.8565 48.1662 88.0965L63.1238 73.1389L78.0814 88.0965C79.5752 89.4122 81.5144 90.1087 83.504 90.0443C85.4935 89.9798 87.3836 89.1591 88.789 87.7494C90.1944 86.3397 91.0094 84.4472 91.0679 82.4575C91.1263 80.4678 90.4239 78.5306 89.1037 77.0408L74.1794 62.0832Z" fill="url(#paint3_linear_547_715)"/>
<path d="M134.522 143.029L149.282 126.756L151.505 128.773C153.662 130.729 154.954 133.463 155.096 136.372C155.237 139.28 154.218 142.126 152.261 144.283C150.305 146.44 147.571 147.732 144.663 147.874C141.754 148.015 138.908 146.996 136.751 145.039L134.528 143.023L134.522 143.029Z" fill="#8960CB"/>
<defs>
<filter id="filter0_b_547_715" x="-7.22006" y="-6.7767" width="137.72" height="137.72" filterUnits="userSpaceOnUse" color-interpolation-filters="sRGB">
<feFlood flood-opacity="0" result="BackgroundImageFix"/>
<feGaussianBlur in="BackgroundImage" stdDeviation="8.33757"/>
<feComposite in2="SourceAlpha" operator="in" result="effect1_backgroundBlur_547_715"/>
<feBlend mode="normal" in="SourceGraphic" in2="effect1_backgroundBlur_547_715" result="shape"/>
</filter>
<linearGradient id="paint0_linear_547_715" x1="102.505" y1="114.017" x2="117.405" y2="97.6746" gradientUnits="userSpaceOnUse">
<stop stop-color="#DD5DB6"/>
<stop offset="1" stop-color="#8960CB"/>
</linearGradient>
<linearGradient id="paint1_linear_547_715" x1="-0.139622" y1="28.8947" x2="123.95" y2="29.7004" gradientUnits="userSpaceOnUse">
<stop stop-color="#DD5DB6"/>
<stop offset="1" stop-color="#8960CB"/>
</linearGradient>
<linearGradient id="paint2_linear_547_715" x1="61.6399" y1="9.89844" x2="114.225" y2="146.351" gradientUnits="userSpaceOnUse">
<stop stop-color="white"/>
<stop offset="1" stop-color="#D2F7FF"/>
</linearGradient>
<linearGradient id="paint3_linear_547_715" x1="34.9316" y1="37.4505" x2="91.5973" y2="90.3918" gradientUnits="userSpaceOnUse">
<stop stop-color="#FF698D"/>
<stop offset="1" stop-color="#FF3868"/>
</linearGradient>
</defs>
</svg>
