<svg width="135" height="135" viewBox="0 0 135 135" fill="none" xmlns="http://www.w3.org/2000/svg">
<rect width="135" height="135" fill="white"/>
<path d="M93 49.5625V81.175C90.617 79.7991 87.8465 79.2481 85.1184 79.6073C82.3903 79.9664 79.8569 81.2158 77.9111 83.1615C75.9654 85.1073 74.7161 87.6407 74.3569 90.3688C73.9978 93.097 74.5489 95.8674 75.9248 98.2504C77.3007 100.633 79.4244 102.496 81.9667 103.549C84.5089 104.602 87.3276 104.787 89.9855 104.074C92.6434 103.362 94.992 101.793 96.6671 99.6096C98.3422 97.4265 99.2501 94.7517 99.25 92V29.0375C99.251 28.2352 99.0588 27.4445 98.6899 26.7321C98.3209 26.0197 97.7859 25.4066 97.1301 24.9445C96.4743 24.4823 95.717 24.1848 94.922 24.077C94.127 23.9692 93.3177 24.0542 92.5625 24.325L52.5625 38.6125C51.5928 38.9602 50.7542 39.5989 50.1613 40.4412C49.5683 41.2836 49.2501 42.2886 49.25 43.3187V87.4187C46.8672 86.043 44.0971 85.4919 41.3692 85.8509C38.6413 86.2099 36.108 87.4589 34.1622 89.4042C32.2164 91.3495 30.9669 93.8825 30.6072 96.6103C30.2476 99.3381 30.7981 102.108 32.1732 104.491C33.5484 106.875 35.6714 108.737 38.2131 109.791C40.7547 110.845 43.573 111.03 46.231 110.319C48.8889 109.608 51.2379 108.04 52.9138 105.858C54.5896 103.676 55.4987 101.001 55.5 98.25V62.9562L93 49.5687V49.5625Z" fill="url(#paint0_linear_543_718)"/>
<defs>
<linearGradient id="paint0_linear_543_718" x1="104.957" y1="23.5217" x2="31.0435" y2="110.478" gradientUnits="userSpaceOnUse">
<stop stop-color="#8960CB"/>
<stop offset="1" stop-color="#DD5DB6"/>
</linearGradient>
</defs>
</svg>
