<svg width="135" height="135" viewBox="0 0 135 135" fill="none" xmlns="http://www.w3.org/2000/svg">
<rect width="135" height="135" fill="white"/>
<path d="M67.4999 14.5833C38.8138 14.5833 14.5833 38.8139 14.5833 67.5C14.5833 96.1861 38.8138 120.417 67.4999 120.417C96.186 120.417 120.417 96.1861 120.417 67.5C120.417 38.8139 96.186 14.5833 67.4999 14.5833ZM67.4999 41.0417C76.6386 41.0417 83.3749 47.7727 83.3749 56.9167C83.3749 66.0607 76.6386 72.7917 67.4999 72.7917C58.3665 72.7917 51.6249 66.0607 51.6249 56.9167C51.6249 47.7727 58.3665 41.0417 67.4999 41.0417ZM40.4807 92.7518C45.2273 85.7668 53.1436 81.1102 62.2083 81.1102H72.7916C81.8615 81.1102 89.7726 85.7668 94.5192 92.7518C87.7564 99.9908 78.1626 104.542 67.4999 104.542C56.8372 104.542 47.2434 99.9908 40.4807 92.7518Z" fill="url(#paint0_linear_559_717)"/>
<defs>
<linearGradient id="paint0_linear_559_717" x1="67.4999" y1="14.5833" x2="67.4999" y2="120.417" gradientUnits="userSpaceOnUse">
<stop stop-color="#A81AE0"/>
<stop offset="1" stop-color="#DC56CF"/>
</linearGradient>
</defs>
</svg>
